{"title":"The Tripper 2006 DVDRip Xvid BigPerm LKRG","uid":6624879,"size":733936830,"categoryP":"video","categoryS":"movies","magnet":"?xt=urn:btih:1a0d88c24979df9fd0cc6133f2e163a9b1ed74a5&amp;dn=The+Tripper+2006+DVDRip+Xvid+BigPerm+LKRG&amp;tr=udp%3A%2F%2Ftracker.openbittorrent.com%3A80&amp;tr=udp%3A%2F%2Fopen.demonii.com%3A1337&amp;tr=udp%3A%2F%2Ftracker.coppersurfer.tk%3A6969&amp;tr=udp%3A%2F%2Fexodus.desync.com%3A6969","seeders":0,"leechers":1,"uploader":".BONE.","files":2,"time":1314122079,"description":"PLOT\n\nA Ronald Reagan-obsessed serial killer targets a bunch of hippies who are heading to a weekend-long concert.\n &lt;a href=&quot;\nhttp://www.imdb.com/title/tt0760187/&quot; rel=&quot;nofollow&quot; target=&quot;_NEW&quot;&gt;\nhttp://www.imdb.com/title/tt0760187/&lt;/a&gt;\n\nEncoded By .......: BigPerm1828\nRuntime ..........: 1h 37mn\nFile Size ........: 700 MB\nResolution .......: 640 x 352\nIMDb URL .........: http://www.imdb.com/title/tt0760187/\nGenre ............: Horror\nLanguage .........: English\nVideo\nID : 0\nFormat : MPEG-4 Visual\nFormat profile : Advanced Simple@L5\nFormat settings, BVOP : Yes\nFormat settings, QPel : No\nFormat settings, GMC : No warppoints\nFormat settings, Matrix : Default (H.263)\nMuxing mode : Packed bitstream\nCodec ID : XVID\nCodec ID/Hint : XviD\nDuration : 1h 37mn\nBit rate : 865 Kbps\nWidth : 640 pixels\nHeight : 352 pixels\nDisplay aspect ratio : 16:9\nFrame rate : 23.976 fps\nColor space : YUV\nChroma subsampling : 4:2:0\nBit depth : 8 bits\nScan type : Progressive\nCompression mode : Lossy\nBits/(Pixel*Frame) : 0.160\nStream size : 601 MiB (86%)\nWriting library : XviD 1.2.1 (UTC 2008-12-04)\n\nAudio\nID : 1\nFormat : MPEG Audio\nFormat version : Version 1\nFormat profile : Layer 3\nMode : Joint stereo\nCodec ID : 55\nCodec ID/Hint : MP3\nDuration : 1h 37mn\nBit rate mode : Variable\nBit rate : 129 Kbps\nMinimum bit rate : 32.0 Kbps\nChannel(s) : 2 channels\nSampling rate : 48.0 KHz\nCompression mode : Lossy\nStream size : 89.7 MiB (13%)\nAlignment : Aligned on interleaves\nInterleave, duration : 24 ms (0.58 video frame)\nInterleave, preload duration : 142 ms\nWriting library : LAME3.98r\nEncoding settings : -m j -V 5 -q 2 -lowpass 16.5 --vbr-new -b 32\n\n\n\n\n\n\n","torrent":{"xt":"urn:btih:1a0d88c24979df9fd0cc6133f2e163a9b1ed74a5","amp;dn":"The+Tripper+2006+DVDRip+Xvid+BigPerm+LKRG","amp;tr":["udp%3A%2F%2Ftracker.openbittorrent.com%3A80","udp%3A%2F%2Fopen.demonii.com%3A1337","udp%3A%2F%2Ftracker.coppersurfer.tk%3A6969","udp%3A%2F%2Fexodus.desync.com%3A6969"],"infoHash":"1a0d88c24979df9fd0cc6133f2e163a9b1ed74a5","infoHashBuffer":{"type":"Buffer","data":[26,13,136,194,73,121,223,159,208,204,97,51,242,225,99,169,177,237,116,165]},"announce":[],"urlList":[]}}